<svg xmlns="http://www.w3.org/2000/svg" viewBox="0 0 32 32" fill="none">
  <!-- Shield body (the "pump") -->
  <path d="M14 2 L4 7 L4 18 C4 24 14 30 14 30 C14 30 24 24 24 18 L24 7 Z" fill="#059669"/>
  <!-- Fuel drop inside shield -->
  <path d="M14 10 C14 10 10 15 10 18 C10 20.2 11.8 22 14 22 C16.2 22 18 20.2 18 18 C18 15 14 10 14 10Z" fill="white" opacity="0.9"/>
  <!-- Gas nozzle handle extending from shield right side -->
  <rect x="24" y="9" width="3.5" height="2.5" rx="0.5" fill="#059669"/>
  <!-- Hose curving down -->
  <path d="M27.5 11.5 C27.5 11.5 29 11.5 29 13.5 L29 21" stroke="#059669" stroke-width="2" stroke-linecap="round" fill="none"/>
  <!-- Nozzle tip -->
  <path d="M27.5 21 L30.5 21 L30.5 25 L29.5 26.5 L28.5 25 L27.5 25 Z" fill="#059669"/>
</svg>
